<?xml version="1.0" standalone="no"?><!DOCTYPE svg PUBLIC "-//W3C//DTD SVG 1.1//EN" "http://www.w3.org/Graphics/SVG/1.1/DTD/svg11.dtd"><svg t="1614237042273" class="icon" viewBox="0 0 1024 1024" version="1.1" xmlns="http://www.w3.org/2000/svg" p-id="1215" xmlns:xlink="http://www.w3.org/1999/xlink" width="200" height="200"><defs><style type="text/css"></style></defs><path d="M512.1 955.7c-1.4 0-2.7-0.4-4-1.1L80.4 706.4c-2.4-1.4-3.9-4-3.9-6.8v-88.8c0-2.8 1.5-5.4 3.9-6.8l427.7-252c1.2-0.7 2.6-1.1 4-1.1s2.8 0.4 4 1.1l427.6 252c2.4 1.4 3.9 4 3.9 6.8v88.8c0 2.8-1.5 5.4-3.9 6.8L516 954.6c-1.2 0.7-2.6 1.1-3.9 1.1z" fill="#B5D6FB" p-id="1216"></path><path d="M512.1 358.8l427.5 252v88.8L869.9 740 512.1 947.8 154.1 740l-69.7-40.4v-88.8l427.7-252m0-15.8c-2.8 0-5.5 0.7-8 2.2l-427.7 252c-4.8 2.8-7.8 8-7.8 13.6v88.8c0 5.6 3 10.8 7.9 13.7l69.7 40.5 358 207.8c2.4 1.4 5.2 2.1 7.9 2.1s5.5-0.7 7.9-2.1l357.8-207.8 69.7-40.4c4.9-2.8 7.9-8 7.9-13.7v-88.8c0-5.6-3-10.8-7.8-13.6l-427.5-252c-2.5-1.5-5.3-2.3-8-2.3z" fill="#11317e" p-id="1217"></path><path d="M84.4 610.8L512 860.7l427.6-249.9-427.5-252z" fill="#FFFFFF" p-id="1218"></path><path d="M500.9 70.3L232.1 562.1l277.7 159L791 561.2z" fill="#D4E4FC" p-id="1219"></path><path d="M214.6 601.2c-1.3 0-2.6-0.3-3.9-1-3.8-2.1-5.2-6.9-3-10.7l294.9-525c1.4-2.5 4-4 6.9-4 2.8 0 5.4 1.5 6.9 4l299.9 525c2.2 3.8 0.8 8.6-2.9 10.8-3.8 2.1-8.6 0.8-10.8-2.9l-293-512.9-288.1 512.7c-1.5 2.6-4.2 4-6.9 4z" fill="#11317e" p-id="1220"></path><path d="M509.8 752.4c-4.4 0-7.9-3.5-7.9-7.9V86.7c0-4.4 3.5-7.9 7.9-7.9s7.9 3.5 7.9 7.9v657.9c0 4.3-3.6 7.8-7.9 7.8z" fill="#11317e" p-id="1221"></path><path d="M509.8 729c-1.4 0-2.7-0.4-3.9-1L228.2 569c-3.8-2.2-5.1-7-2.9-10.8 2.2-3.8 7-5.1 10.8-2.9L509.8 712l277.3-157.7c3.8-2.2 8.6-0.8 10.8 3 2.2 3.8 0.8 8.6-3 10.8L513.7 728c-1.2 0.7-2.6 1-3.9 1z" fill="#11317e" p-id="1222"></path><path d="M509.8 578.9c-1.4 0-2.7-0.4-4-1.1l-213-124c-3.8-2.2-5-7-2.9-10.8 2.2-3.8 7-5.1 10.8-2.8l209.1 121.7 212.8-120.5c3.8-2.2 8.6-0.8 10.8 3 2.2 3.8 0.8 8.6-3 10.7L513.7 577.9c-1.2 0.7-2.6 1-3.9 1zM507.2 423.5c-1.3 0-2.5-0.3-3.7-0.9L354.9 344c-3.9-2.1-5.3-6.8-3.3-10.7 2-3.9 6.8-5.3 10.7-3.3l145 76.7 150.8-78.8c3.9-2 8.6-0.5 10.7 3.3 2 3.9 0.5 8.6-3.3 10.7L511 422.6c-1.3 0.6-2.5 0.9-3.8 0.9zM509.8 277c-1.3 0-2.6-0.3-3.7-0.9l-86.8-46.8c-3.8-2.1-5.3-6.9-3.2-10.7 2.1-3.9 6.9-5.2 10.7-3.2l83 44.8 82.6-46.9c3.8-2.2 8.6-0.8 10.8 3 2.2 3.8 0.8 8.6-3 10.8l-86.4 49c-1.3 0.6-2.7 0.9-4 0.9z" fill="#11317e" p-id="1223"></path><path d="M509.8 578.9h-0.3L231.9 570c-4.4-0.1-7.8-3.8-7.6-8.1 0.1-4.4 4.3-7.6 8.1-7.6l277.7 8.9c4.4 0.1 7.8 3.8 7.6 8.1-0.2 4.2-3.7 7.6-7.9 7.6zM509.8 729c-1.7 0-3.4-0.6-4.9-1.7-3.4-2.7-4-7.7-1.3-11.1l216.7-272.9c2.7-3.4 7.7-4 11.1-1.3 3.4 2.7 4 7.7 1.3 11.1L516 726c-1.6 2-3.9 3-6.2 3z" fill="#11317e" p-id="1224"></path><path d="M509.8 578.9c-1.5 0-2.9-0.4-4.3-1.2-3.7-2.4-4.7-7.2-2.4-10.9l152-236.1c2.4-3.7 7.3-4.7 10.9-2.4 3.7 2.4 4.7 7.2 2.4 10.9l-152 236.1c-1.5 2.3-4 3.6-6.6 3.6zM507.2 423.5c-1.1 0-2.2-0.2-3.3-0.7-4-1.8-5.7-6.5-3.9-10.5l89-195.5c1.8-4 6.4-5.7 10.5-3.9 4 1.8 5.7 6.5 3.9 10.5l-88.9 195.5c-1.4 2.9-4.3 4.6-7.3 4.6z" fill="#11317e" p-id="1225"></path><path d="M596.2 377c-2.9 0-5.7-1.6-7.1-4.4-1.9-3.9-0.3-8.6 3.6-10.5L729 295.7 343.3 120l22 205.3 141.3-63.4c3.9-1.8 8.6 0 10.4 4 1.8 4 0 8.6-4 10.4l-151.2 67.9c-2.3 1-4.9 0.9-7.2-0.4-2.2-1.3-3.6-3.5-3.9-6l-24.6-229.9c-0.3-2.8 0.9-5.6 3.2-7.2 2.3-1.6 5.3-2 7.9-0.8l413.6 188.4c2.8 1.3 4.6 4 4.6 7.1 0 3.1-1.7 5.9-4.4 7.2l-151.4 73.6c-1.1 0.6-2.3 0.8-3.4 0.8zM296.8 454.9c-3.8 0-7.2-2.8-7.8-6.7-0.6-4.3 2.3-8.3 6.6-9l210.5-31.4c4.3-0.6 8.3 2.3 9 6.6 0.6 4.3-2.3 8.3-6.6 9L298 454.8c-0.5 0.1-0.9 0.1-1.2 0.1z" fill="#11317e" p-id="1226"></path></svg>